<?xml version="1.0" encoding="UTF-8"?><svg id="Calque_1" xmlns="http://www.w3.org/2000/svg" viewBox="0 0 283.46 121.89"><defs><style>.cls-1{fill:#0ed894;}.cls-2{fill:#fff;}</style></defs><path class="cls-2" d="M106.94,25.83c0-.75.52-1.21,1.21-1.21.63,0,1.21.46,1.21,1.21v14.16c2.07-3.74,6.1-6.33,10.7-6.33,7.31,0,13.18,5.87,13.18,13.18s-5.87,13.18-13.18,13.18-13.12-5.87-13.12-13.18v-21.01ZM109.36,46.84c0,5.93,4.83,10.76,10.7,10.76s10.76-4.83,10.76-10.76-4.78-10.76-10.76-10.76-10.7,4.78-10.7,10.76Z"/><path class="cls-2" d="M150.61,60.02c-7.25,0-13.18-5.87-13.18-13.18s5.93-13.18,13.18-13.18,13.18,5.87,13.18,13.18v11.91c0,.69-.46,1.27-1.21,1.27-.63,0-1.21-.58-1.21-1.27v-4.26c-2.36,3.34-6.33,5.52-10.76,5.52ZM161.32,46.84c0-5.99-4.72-10.76-10.7-10.76-5.93,0-10.76,4.78-10.76,10.76s4.84,10.76,10.76,10.76,10.7-4.83,10.7-10.76Z"/><path class="cls-2" d="M180.77,33.66c6.16,0,11.28,5.06,11.28,11.28v13.87c0,.69-.58,1.21-1.27,1.21-.63,0-1.21-.57-1.21-1.21v-13.87c0-4.83-3.97-8.81-8.81-8.81s-8.81,3.97-8.81,8.81v13.87c0,.69-.57,1.21-1.21,1.21-.69,0-1.21-.57-1.21-1.21v-13.87c0-6.22,5.06-11.28,11.22-11.28Z"/><path class="cls-2" d="M197.11,46.84c0-7.31,5.87-13.18,13.13-13.18,4.72,0,8.69,2.59,10.76,6.33v-14.16c0-.75.52-1.21,1.21-1.21s1.27.46,1.26,1.21v21.01c0,7.31-5.93,13.18-13.24,13.18s-13.12-5.87-13.12-13.18ZM199.53,46.84c0,5.93,4.78,10.76,10.71,10.76s10.76-4.83,10.76-10.76-4.78-10.76-10.76-10.76-10.71,4.78-10.71,10.76Z"/><path class="cls-1" d="M120.28,71.12c1.53,0,2.78,1.38,2.78,2.99s-1.25,2.99-2.78,2.99h-9.87c-2.12,0-2.61,2.3-.54,3.05l9.16,3.11c4.58,1.5,6.11,5.41,5.45,8.63-.71,2.99-3.49,5.64-7.79,5.64h-10.03c-1.53,0-2.83-1.38-2.83-2.99,0-1.73,1.31-3.05,2.83-3.05h10.47c2.18,0,2.62-2.3.55-3.05l-9.21-3.11c-4.47-1.44-6.05-5.35-5.4-8.58.71-3.05,3.49-5.64,7.85-5.64h9.38Z"/><path class="cls-1" d="M134.77,62.09c1.73,0,3.11,1.38,3.11,2.99v6.04h3.8c1.67,0,3.05,1.38,3.05,2.99s-1.38,3.05-3.05,3.05h-3.8v17.38c0,1.61-1.38,2.99-3.11,2.99-1.61,0-2.93-1.38-2.93-2.99v-17.38h-3.86c-1.61,0-2.99-1.44-2.99-3.05s1.38-2.99,2.99-2.99h3.86v-6.04c0-1.67,1.32-2.99,2.93-2.99Z"/><path class="cls-1" d="M158.49,71.12c1.61,0,2.99,1.38,2.99,2.99s-1.38,2.99-2.99,2.99c-3.34,0-5.93,2.65-5.93,5.93v11.57c0,1.73-1.32,3.05-2.99,3.05s-2.99-1.32-2.99-3.05v-11.57c0-6.5,5.35-11.91,11.91-11.91Z"/><path class="cls-1" d="M175.85,71.12c6.45,0,11.86,4.72,12.83,10.93.63,2.59-.23,4.43-3.45,4.43h-16.17c.86,2.88,3.57,5.01,6.79,5.01,1.9,0,3.68-.81,5.01-2.07.63-.63,1.44-.92,2.19-.92s1.5.29,2.07.92c1.15,1.09,1.15,3.05,0,4.26-2.36,2.36-5.7,3.86-9.27,3.86-7.37,0-13.24-5.87-13.24-13.24s5.87-13.18,13.24-13.18ZM175.85,77.11c-3.22,0-5.93,2.19-6.79,5.12h13.47c-.81-2.94-3.51-5.12-6.68-5.12Z"/><path class="cls-1" d="M204.81,97.54c-7.31,0-13.18-5.87-13.18-13.24s5.87-13.12,13.18-13.12,13.12,5.87,13.12,13.12v10.24c0,1.61-1.38,2.99-3.11,2.99-1.32,0-2.47-.92-2.82-2.13-2.07,1.32-4.55,2.13-7.19,2.13ZM211.95,84.3c0-3.91-3.22-7.2-7.14-7.2s-7.25,3.28-7.25,7.2,3.28,7.19,7.25,7.19,7.14-3.17,7.14-7.19Z"/><path class="cls-1" d="M231.85,71.12c2.94,0,5.64,1.32,7.31,3.4,1.9-2.07,4.49-3.4,7.48-3.4,5.7,0,10.36,4.66,10.36,10.47v12.95c0,1.61-1.33,2.99-2.94,2.99-1.73,0-3.11-1.38-3.11-2.99v-12.95c0-2.47-1.96-4.49-4.32-4.49s-4.43,2.01-4.43,4.49v12.95c0,1.61-1.33,2.99-3.05,2.99-1.61,0-2.94-1.38-2.94-2.99v-12.95c0-2.47-2.01-4.49-4.37-4.49-2.47,0-4.43,2.01-4.43,4.49v12.95c0,1.61-1.33,2.99-2.99,2.99s-2.99-1.38-2.99-2.99v-12.95c0-5.81,4.66-10.47,10.42-10.47Z"/><path class="cls-1" d="M56.17,24.24h-4.98c-11.94,0-19.49,8.07-19.49,19.38,0,7.12,2.93,11.52,7.44,13.93-7.02,2.3-12.68,8.28-12.68,18.54,0,12.57,8.38,21.48,21.79,21.48h38.13v-43.11c0-16.69-13.53-30.22-30.22-30.22ZM70.82,65.78l-13.35,9.05c-1.78,1.2-4.18-.06-4.19-2.21l-.11-18.21c-.01-2.16,2.41-3.45,4.2-2.24l13.46,9.16c1.57,1.07,1.57,3.38,0,4.45Z"/></svg>